# xmcd CD database file
#
# Track frame offsets:
#	150
#	2707
#	24585
#	46567
#	67400
#	86662
#	107902
#	130030
#	148432
#	167915
#	189827
#	209447
#	231840
#	252675
#
# Disc length: 3400 seconds
#
# Revision: 0
# Processed by: cddbd v1.5.1PL2 Copyright (c) Steve Scherf et al.
# Submitted via: CDex 1.51
#
DISCID=cc0d460e
DTITLE=Inst. - A MUSIC BOX FOR FANTASY 〜RYO ASKA〜
DYEAR=1992
DGENRE=Instrumental
TTITLE0=プロローグ
TTITLE1=SAY YES
TTITLE2=DO YA DO
TTITLE3=WALK
TTITLE4=MIDNIGHT 2 CALL
TTITLE5=恋人はワイン色
TTITLE6=太陽と埃の中で
TTITLE7=オンリー ロンリー
TTITLE8=男と女
TTITLE9=tomorrow
TTITLE10=モーニング ムーン
TTITLE11=熱い想い
TTITLE12=はじまりはいつも雨
TTITLE13=エピローグ
EXTD=YEAR: 1992
EXTT0=
EXTT1=
EXTT2=
EXTT3=
EXTT4=
EXTT5=
EXTT6=
EXTT7=
EXTT8=
EXTT9=
EXTT10=
EXTT11=
EXTT12=
EXTT13=
PLAYORDER=
